<svg width="41" height="48" viewBox="0 0 41 48" fill="none" xmlns="http://www.w3.org/2000/svg">
<path d="M34.902 15.521C34.902 16.746 34.755 17.938 34.478 19.078C32.881 25.645 26.961 30.521 19.902 30.521C12.843 30.521 6.92298 25.645 5.32598 19.078C5.04345 17.9135 4.90111 16.7193 4.90198 15.521C4.90198 7.237 11.618 0.520996 19.902 0.520996C28.186 0.520996 34.902 7.237 34.902 15.521Z" fill="#9B9B9A"/>
<path d="M15.931 0.927002C15.931 0.927002 9.41204 3.167 6.74704 8.312C5.58704 10.425 3.74104 11.817 5.32704 19.078C6.91204 26.338 15.887 30.125 15.887 30.125C18.5813 29.4887 21.0474 28.1204 23.013 26.171C24.9787 24.2216 26.3675 21.7669 27.026 19.078C27.303 17.938 27.449 16.747 27.449 15.521C27.449 8.436 22.537 2.497 15.931 0.927002Z" fill="#D0CFCE"/>
<path d="M0.764038 46.738C0.764038 46.738 -1.23596 33.238 10.764 33.238C13.956 35.366 16.691 36.837 19.764 36.831H19.639C22.713 36.837 25.147 34.666 28.339 32.538C43.909 32.538 39.039 46.738 39.039 46.738" fill="#D0CFCE"/>
<path d="M12.45 40.893H28.011V46.717H12.45V40.893Z" fill="#9B9B9A"/>
<path d="M28.745 33.666C25.575 35.779 23.87 36.666 19.808 37.254C32.87 37.666 32.87 42.666 33.632 46.666H38.745C38.745 46.666 40.745 33.666 28.745 33.666Z" fill="#9B9B9A"/>
<path d="M31.1169 14.549C30.7519 11.986 17.1739 6.005 8.90694 13.742C8.90694 13.742 8.59094 15.727 8.59094 16.874C8.59094 24.702 13.6679 31.047 19.9309 31.047C26.1919 31.047 31.2689 24.702 31.2689 16.874C31.2689 16.082 31.4819 17.111 31.1169 14.549Z" fill="#FADCBC" stroke="#FADCBC"/>
<path d="M19.05 47.187C19.1277 46.8911 19.1365 46.5814 19.0757 46.2816C19.0149 45.9818 18.8862 45.6999 18.6994 45.4577C18.5126 45.2154 18.2727 45.0193 17.9982 44.8843C17.7237 44.7493 17.4219 44.6791 17.116 44.679H17.122C16.8161 44.6793 16.5144 44.7496 16.24 44.8847C15.9656 45.0197 15.7259 45.2159 15.5391 45.4581C15.3523 45.7003 15.2236 45.982 15.1627 46.2818C15.1018 46.5815 15.1105 46.8911 15.188 47.187" fill="black"/>
<path d="M25.752 47.187C25.8297 46.8911 25.8385 46.5814 25.7777 46.2816C25.7169 45.9818 25.5882 45.6999 25.4014 45.4577C25.2146 45.2154 24.9747 45.0193 24.7002 44.8843C24.4257 44.7493 24.1239 44.6791 23.818 44.679H23.824C23.5182 44.6793 23.2165 44.7496 22.9421 44.8847C22.6677 45.0197 22.4279 45.2159 22.2411 45.4581C22.0544 45.7003 21.9256 45.982 21.8647 46.2818C21.8039 46.5815 21.8125 46.8911 21.89 47.187" fill="black"/>
<path d="M1.125 46.286C1.125 46.286 -0.875 33.286 11.125 33.286C14.317 35.414 17.052 36.884 20.125 36.878H20C23.074 36.884 25.808 35.414 29 33.286C41 33.286 39 46.286 39 46.286" stroke="black" stroke-width="2" stroke-miterlimit="10" stroke-linecap="round" stroke-linejoin="round"/>
<path d="M32.0469 16.555C31.4534 15.4508 30.6462 14.4756 29.6723 13.6862C28.6983 12.8969 27.5771 12.309 26.3739 11.957C24.2539 11.336 22.2439 11.055 20.1569 11.114C18.0699 11.054 16.0609 11.336 13.9409 11.958C12.7378 12.3098 11.6166 12.8974 10.6426 13.6866C9.66868 14.4758 8.86146 15.4508 8.26794 16.555" stroke="black" stroke-width="2" stroke-miterlimit="10" stroke-linecap="round" stroke-linejoin="round"/>
<path d="M38.119 13.935V18.706" stroke="black" stroke-width="2" stroke-miterlimit="10" stroke-linecap="round" stroke-linejoin="round"/>
<path d="M2.00598 13.935V18.706" stroke="black" stroke-width="2" stroke-miterlimit="10" stroke-linecap="round" stroke-linejoin="round"/>
<path d="M28.085 46.264V41.456H12.825V46.264" stroke="black" stroke-width="2" stroke-miterlimit="10" stroke-linecap="round" stroke-linejoin="round"/>
<path d="M26.185 15.433C26.1849 15.6957 26.1331 15.9558 26.0325 16.1985C25.9319 16.4412 25.7845 16.6617 25.5987 16.8474C25.4129 17.0331 25.1923 17.1804 24.9496 17.2809C24.7068 17.3814 24.4467 17.4331 24.184 17.433C23.9213 17.4329 23.6611 17.3811 23.4184 17.2805C23.1758 17.1799 22.9553 17.0325 22.7695 16.8467C22.5838 16.6609 22.4365 16.4403 22.336 16.1976C22.2356 15.9549 22.1839 15.6947 22.184 15.432C22.1841 14.9014 22.395 14.3927 22.7702 14.0176C23.1455 13.6425 23.6544 13.4319 24.185 13.432C24.7155 13.4321 25.2243 13.643 25.5994 14.0183C25.9745 14.3935 26.1851 14.9024 26.185 15.433Z" fill="black"/>
<path d="M18.185 15.433C18.1849 15.6957 18.1331 15.9558 18.0325 16.1985C17.9319 16.4412 17.7845 16.6617 17.5987 16.8474C17.4129 17.0331 17.1923 17.1804 16.9496 17.2809C16.7068 17.3814 16.4467 17.4331 16.184 17.433C15.9213 17.4329 15.6611 17.3811 15.4184 17.2805C15.1758 17.1799 14.9553 17.0325 14.7695 16.8467C14.5838 16.6609 14.4365 16.4403 14.336 16.1976C14.2356 15.9549 14.1839 15.6947 14.184 15.432C14.1841 14.9014 14.395 14.3927 14.7702 14.0176C15.1455 13.6425 15.6544 13.4319 16.185 13.432C16.7155 13.4321 17.2243 13.643 17.5994 14.0183C17.9745 14.3935 18.1851 14.9024 18.185 15.433Z" fill="black"/>
<path d="M20.185 25.436C19.033 25.436 17.881 25.15 16.738 24.578C16.6205 24.5193 16.5156 24.438 16.4295 24.3388C16.3434 24.2396 16.2777 24.1244 16.236 23.9998C16.1944 23.8752 16.1778 23.7436 16.1871 23.6125C16.1963 23.4815 16.2313 23.3535 16.29 23.236C16.3487 23.1185 16.43 23.0137 16.5292 22.9275C16.6284 22.8414 16.7436 22.7757 16.8682 22.7341C16.9928 22.6925 17.1244 22.6758 17.2555 22.6851C17.3865 22.6943 17.5145 22.7293 17.632 22.788C19.35 23.648 21.02 23.648 22.738 22.788C22.9754 22.6695 23.2501 22.6501 23.5018 22.7341C23.6264 22.7757 23.7416 22.8414 23.8408 22.9275C23.94 23.0137 24.0213 23.1185 24.08 23.236C24.1387 23.3535 24.1737 23.4815 24.1829 23.6125C24.1922 23.7436 24.1755 23.8752 24.1339 23.9998C24.0923 24.1244 24.0266 24.2396 23.9405 24.3388C23.8543 24.438 23.7495 24.5193 23.632 24.578C22.489 25.15 21.337 25.436 20.185 25.436Z" fill="black"/>
<path d="M30.49 22.715C31.1805 20.8179 31.5305 18.8138 31.524 16.795C31.524 16.407 31.511 16.023 31.487 15.644" stroke="black" stroke-width="2" stroke-miterlimit="10"/>
<path d="M8.88895 15.556C8.86095 15.964 8.84595 16.376 8.84595 16.794C8.84595 24.622 13.9229 30.967 20.1859 30.967" stroke="black" stroke-width="2" stroke-miterlimit="10"/>
<path d="M20.811 27.822C20.811 27.822 27.851 27.817 30.403 22.683" stroke="black" stroke-width="2" stroke-miterlimit="10" stroke-linecap="round"/>
<path d="M35.157 16C35.157 17.225 35.01 18.417 34.733 19.557C33.136 26.124 27.216 31 20.157 31C13.098 31 7.17799 26.124 5.58099 19.557C5.29845 18.3925 5.15611 17.1983 5.15699 16C5.15699 7.716 11.873 1 20.157 1C28.441 1 35.157 7.716 35.157 16V16Z" stroke="black" stroke-width="2" stroke-miterlimit="10" stroke-linecap="round" stroke-linejoin="round"/>
</svg>
