<svg width="54" height="53" viewBox="0 0 54 53" fill="none" xmlns="http://www.w3.org/2000/svg">
<path d="M2.28296 50.824C2.28296 50.824 0.282959 37.324 12.283 37.324C15.475 39.452 18.209 40.923 21.283 40.916H21.158C24.232 40.923 25.866 38.752 29.058 36.624C44.628 36.624 40.558 50.824 40.558 50.824" fill="#92D3F5"/>
<path d="M20.5371 47.498L17.2981 43.566L14.0591 39.634H27.0151L23.7761 43.566L20.5371 47.498Z" fill="white"/>
<path d="M11.53 36.92C11.53 36.92 5.63001 40.946 9.37001 44.387H13.942L13.109 48.129L21 50.08L21.29 47.575L12.93 37.211" fill="#61B2E4"/>
<path d="M52.087 35.422L45.137 51.772H20.147L27.097 35.422H52.087Z" fill="#D0CFCE"/>
<path d="M52.303 35.422L45.353 51.772H36.363L43.313 35.422H52.083H52.303Z" fill="#9B9B9A"/>
<path d="M32.676 10.072C33.579 13.084 34.492 17.042 32.189 18.526C32.189 18.526 30.891 13.334 29.219 12.403" fill="#A57939"/>
<path d="M13.062 11.972C18.572 14.657 25.836 14.167 29.919 11.902C30.7185 11.4642 31.4418 10.8999 32.061 10.231C34.977 7.054 32.287 3.886 32.287 3.886L29.657 5.916C20.821 -2.919 10.984 2.329 11.647 7.349C11.647 7.349 4.70203 10.972 9.51203 18.812L13.062 11.972Z" fill="#A57939"/>
<path d="M29.92 11.902C25.836 14.167 18.571 14.657 13.062 11.972L9.51195 18.812C9.43995 18.696 9.37995 18.584 9.31395 18.47C9.29895 18.769 9.27795 19.065 9.27795 19.367C9.27795 27.195 14.355 33.541 20.617 33.541C26.879 33.541 31.955 27.195 31.955 19.367C31.955 16.557 31.292 13.945 30.164 11.741C30.08 11.791 30.006 11.855 29.919 11.903L29.92 11.902Z" fill="#FADCBC"/>
<path d="M1.91704 50.919C1.67861 50.9189 1.4481 50.8334 1.26724 50.678C1.08638 50.5227 0.967116 50.3077 0.931041 50.072C0.890041 49.802 -0.0419595 43.439 3.51104 39.297C5.43504 37.056 8.26304 35.92 11.919 35.92C12.1166 35.92 12.3097 35.9784 12.474 36.088C15.637 38.196 18.149 39.506 20.879 39.512H20.919C21.1843 39.5117 21.4387 39.6168 21.6264 39.8042C21.8142 39.9915 21.9198 40.2458 21.92 40.511C21.9203 40.7762 21.8152 41.0307 21.6279 41.2184C21.4405 41.4061 21.1863 41.5117 20.921 41.512H20.916C20.9034 41.511 20.8907 41.511 20.878 41.512H20.794L20.749 41.511C17.65 41.469 14.933 40.108 11.622 37.923C8.72604 37.979 6.51204 38.877 5.03604 40.592C2.08004 44.028 2.89804 49.712 2.90704 49.77C2.9285 49.9124 2.91894 50.0578 2.87903 50.1961C2.83912 50.3345 2.76979 50.4626 2.67578 50.5717C2.58178 50.6808 2.46532 50.7684 2.33436 50.8283C2.20341 50.8882 2.06106 50.9192 1.91704 50.919Z" fill="black"/>
<path d="M18.9961 47.283C18.846 47.2834 18.6979 47.2499 18.5626 47.185C18.4274 47.12 18.3086 47.0253 18.2151 46.908L10.9501 37.837C10.8679 37.7346 10.8068 37.617 10.7701 37.491C10.7334 37.3649 10.722 37.2329 10.7364 37.1024C10.7508 36.9719 10.7907 36.8455 10.854 36.7305C10.9173 36.6155 11.0026 36.514 11.1051 36.432C11.2074 36.3494 11.325 36.288 11.4512 36.251C11.5774 36.2141 11.7096 36.2026 11.8403 36.217C11.971 36.2314 12.0975 36.2715 12.2126 36.335C12.3278 36.3985 12.4292 36.4841 12.5111 36.587L19.7751 45.658C19.8931 45.8048 19.9673 45.9821 19.9889 46.1693C20.0106 46.3564 19.9788 46.5459 19.8974 46.7158C19.8159 46.8858 19.6881 47.0292 19.5286 47.1295C19.3691 47.2299 19.1845 47.2831 18.9961 47.283Z" fill="black"/>
<path d="M18.007 49.355C17.9309 49.3553 17.8551 49.3469 17.781 49.33L12.884 48.203C12.751 48.1726 12.6257 48.1154 12.5157 48.0347C12.4057 47.9541 12.3134 47.8518 12.2444 47.7341C12.1755 47.6165 12.1313 47.4859 12.1148 47.3505C12.0982 47.2152 12.1095 47.0778 12.148 46.947L12.606 45.387H9.36998C9.11998 45.387 8.87798 45.292 8.69298 45.123C7.28898 43.831 7.07298 42.477 7.13998 41.568C7.35298 38.642 10.599 36.346 10.968 36.094C11.187 35.9511 11.4533 35.8997 11.7098 35.9508C11.9663 36.0019 12.1925 36.1514 12.3401 36.3674C12.4876 36.5833 12.5447 36.8485 12.4991 37.106C12.4534 37.3635 12.3087 37.5929 12.096 37.745C11.313 38.283 9.25298 40.045 9.13398 41.717C9.09198 42.309 9.30398 42.857 9.78398 43.387H13.944C14.0992 43.3874 14.2522 43.4238 14.3909 43.4934C14.5297 43.563 14.6503 43.6639 14.7434 43.7881C14.8365 43.9123 14.8995 44.0564 14.9273 44.2091C14.9552 44.3618 14.9472 44.5189 14.904 44.668L14.368 46.492L18.231 47.381C18.4698 47.4365 18.6799 47.5779 18.8213 47.7781C18.9627 47.9784 19.0257 48.2236 18.9981 48.4673C18.9706 48.7109 18.8546 48.9359 18.672 49.0996C18.4895 49.2632 18.2532 49.3541 18.008 49.355H18.007Z" fill="black"/>
<path d="M20.1471 51.773H45.1371L52.0871 35.423H27.0971L20.1471 51.773Z" stroke="black" stroke-width="2" stroke-miterlimit="10" stroke-linecap="round" stroke-linejoin="round"/>
<path d="M9.177 51.773H20.147" stroke="black" stroke-width="2" stroke-miterlimit="10" stroke-linecap="round" stroke-linejoin="round"/>
<path d="M26.9731 19.043C26.9728 19.5737 26.7617 20.0826 26.3863 20.4576C26.0108 20.8327 25.5018 21.0433 24.9711 21.043C24.4404 21.0427 23.9315 20.8317 23.5564 20.4562C23.1814 20.0808 22.9708 19.5717 22.9711 19.041C22.9713 18.5103 23.1824 18.0014 23.5579 17.6264C23.9333 17.2513 24.4424 17.0407 24.9731 17.041C25.5038 17.0413 26.0126 17.2523 26.3877 17.6278C26.7628 18.0032 26.9733 18.5123 26.9731 19.043Z" fill="black"/>
<path d="M18.9731 19.043C18.9728 19.5737 18.7617 20.0826 18.3863 20.4576C18.0108 20.8327 17.5018 21.0433 16.9711 21.043C16.4404 21.0427 15.9315 20.8317 15.5564 20.4562C15.1814 20.0808 14.9708 19.5717 14.9711 19.041C14.9712 18.7782 15.0231 18.518 15.1238 18.2753C15.2244 18.0326 15.372 17.8121 15.5579 17.6264C15.7438 17.4407 15.9644 17.2934 16.2072 17.1929C16.4501 17.0925 16.7103 17.0409 16.9731 17.041C17.2358 17.0411 17.496 17.093 17.7387 17.1937C17.9815 17.2944 18.202 17.4419 18.3877 17.6278C18.5734 17.8137 18.7207 18.0344 18.8211 18.2772C18.9216 18.52 18.9732 18.7802 18.9731 19.043Z" fill="black"/>
<path d="M20.973 29.045C19.821 29.045 18.669 28.759 17.526 28.187C17.4075 28.1289 17.3017 28.048 17.2146 27.9488C17.1275 27.8496 17.0609 27.7342 17.0187 27.6092C16.9764 27.4841 16.9594 27.352 16.9684 27.2203C16.9775 27.0886 17.0125 26.9601 17.0715 26.842C17.1305 26.7239 17.2123 26.6187 17.3122 26.5324C17.412 26.4461 17.528 26.3805 17.6533 26.3392C17.7787 26.2979 17.911 26.2819 18.0426 26.2919C18.1742 26.302 18.3024 26.3381 18.42 26.398C20.138 27.258 21.808 27.258 23.526 26.398C23.7634 26.2794 24.0381 26.26 24.2898 26.3441C24.4144 26.3857 24.5296 26.4514 24.6288 26.5375C24.7281 26.6236 24.8093 26.7285 24.868 26.846C24.9267 26.9635 24.9617 27.0915 24.971 27.2225C24.9802 27.3536 24.9636 27.4852 24.922 27.6098C24.8804 27.7344 24.8146 27.8496 24.7285 27.9488C24.6424 28.048 24.5376 28.1293 24.42 28.188C23.276 28.759 22.125 29.045 20.973 29.045Z" fill="black"/>
<path d="M20.8501 35.577C14.0471 35.577 8.51208 28.771 8.51208 20.404C8.51208 19.737 8.54709 19.069 8.61609 18.42C8.62666 18.2868 8.66382 18.1571 8.72535 18.0385C8.78689 17.92 8.87156 17.8149 8.97437 17.7296C9.07717 17.6443 9.19603 17.5805 9.32392 17.5418C9.45181 17.5032 9.58615 17.4906 9.71898 17.5048C9.85182 17.519 9.98048 17.5596 10.0974 17.6243C10.2142 17.689 10.3169 17.7765 10.3995 17.8816C10.482 17.9867 10.5426 18.1072 10.5777 18.2361C10.6129 18.365 10.6218 18.4996 10.6041 18.632C10.5431 19.212 10.5121 19.808 10.5121 20.404C10.5121 27.668 15.1491 33.577 20.8511 33.577C26.5511 33.577 31.1891 27.668 31.1891 20.404C31.1891 19.816 31.1591 19.224 31.0971 18.64C31.0794 18.3813 31.1629 18.1258 31.3298 17.9274C31.4968 17.7289 31.7343 17.6031 31.9922 17.5762C32.2501 17.5494 32.5084 17.6237 32.7126 17.7835C32.9169 17.9433 33.0511 18.1762 33.0871 18.433C33.1541 19.085 33.1881 19.748 33.1881 20.403C33.1881 28.77 27.6531 35.577 20.8511 35.577H20.8501Z" fill="black"/>
<path d="M26.47 24.668H24.463C23.7273 24.6674 23.0075 24.4545 22.3898 24.0549C21.7722 23.6552 21.283 23.0858 20.981 22.415C20.6793 23.0857 20.1905 23.655 19.5732 24.0546C18.9559 24.4543 18.2364 24.6673 17.501 24.668H15.493C14.4813 24.6669 13.5113 24.2646 12.7959 23.5491C12.0805 22.8337 11.6781 21.8637 11.677 20.852V19.614H10.984C10.7188 19.614 10.4644 19.5086 10.2769 19.3211C10.0894 19.1336 9.98401 18.8792 9.98401 18.614C9.98401 18.3488 10.0894 18.0944 10.2769 17.9069C10.4644 17.7194 10.7188 17.614 10.984 17.614H12.677C12.9422 17.614 13.1966 17.7194 13.3841 17.9069C13.5717 18.0944 13.677 18.3488 13.677 18.614V20.852C13.677 21.853 14.491 22.668 15.493 22.668H17.501C17.9823 22.6672 18.4436 22.4756 18.7839 22.1352C19.1241 21.7947 19.3155 21.3333 19.316 20.852V19.748C19.316 19.4828 19.4214 19.2284 19.6089 19.0409C19.7964 18.8534 20.0508 18.748 20.316 18.748H21.646C21.9112 18.748 22.1656 18.8534 22.3531 19.0409C22.5407 19.2284 22.646 19.4828 22.646 19.748V20.852C22.646 21.853 23.461 22.668 24.463 22.668H26.471C26.9523 22.6672 27.4137 22.4756 27.7539 22.1352C28.0941 21.7947 28.2855 21.3333 28.286 20.852V18.614C28.286 18.3488 28.3914 18.0944 28.5789 17.9069C28.7664 17.7194 29.0208 17.614 29.286 17.614H30.443C30.7082 17.614 30.9626 17.7194 31.1501 17.9069C31.3377 18.0944 31.443 18.3488 31.443 18.614C31.443 18.8792 31.3377 19.1336 31.1501 19.3211C30.9626 19.5086 30.7082 19.614 30.443 19.614H30.286V20.852C30.285 21.8636 29.8827 22.8334 29.1675 23.5488C28.4523 24.2642 27.4826 24.6667 26.471 24.668H26.47Z" fill="black"/>
<path d="M32.1881 19.526C31.9651 19.5262 31.7485 19.4517 31.5727 19.3146C31.3969 19.1774 31.2721 18.9853 31.2181 18.769C30.6441 16.473 29.5291 13.719 28.7321 13.276C28.6174 13.212 28.5164 13.126 28.4349 13.0229C28.3534 12.9199 28.293 12.8018 28.2572 12.6754C28.2214 12.5491 28.2108 12.4169 28.226 12.2864C28.2412 12.1559 28.282 12.0297 28.3461 11.915C28.4101 11.8003 28.4961 11.6993 28.5991 11.6178C28.7022 11.5364 28.8202 11.476 28.9466 11.4401C29.073 11.4043 29.2052 11.3937 29.3357 11.4089C29.4662 11.4242 29.5924 11.465 29.7071 11.529C30.9721 12.234 31.9491 14.471 32.5441 16.212C32.8721 14.607 32.2791 12.231 31.7181 10.359C31.6419 10.1049 31.6699 9.83101 31.7957 9.59753C31.9216 9.36405 32.135 9.19012 32.3891 9.114C32.6431 9.03788 32.9171 9.06581 33.1505 9.19165C33.384 9.31749 33.5579 9.53092 33.6341 9.785C34.3111 12.042 35.8971 17.328 32.7301 19.367C32.5688 19.471 32.381 19.5262 32.1891 19.526H32.1881Z" fill="black"/>
<path d="M9.51201 19.813C9.16501 19.813 8.84201 19.633 8.65901 19.335C6.95601 16.559 6.42801 13.938 7.08901 11.546C7.79401 8.999 9.66401 7.456 10.616 6.811C10.64 4.617 12.186 2.481 14.716 1.233C18.357 -0.564004 24.146 -0.567004 29.728 4.598L31.676 3.094C31.8799 2.93721 32.1362 2.86483 32.392 2.89182C32.6478 2.91881 32.8834 3.04311 33.05 3.239C34.177 4.567 35.576 7.879 32.799 10.907C32.106 11.6546 31.2974 12.286 30.404 12.777C26.524 14.929 19.439 15.758 13.513 13.273L10.399 19.273C10.3175 19.4301 10.1958 19.5628 10.0463 19.6575C9.89683 19.7522 9.72487 19.8055 9.54801 19.812H9.51201V19.813ZM19.526 2.148C18.036 2.148 16.698 2.486 15.602 3.026C13.597 4.016 12.434 5.661 12.639 7.218C12.666 7.42146 12.6297 7.62828 12.535 7.8104C12.4404 7.99252 12.292 8.14111 12.11 8.236C12.09 8.246 9.71001 9.536 9.01201 12.1C8.63501 13.482 8.80201 15.007 9.50701 16.65L12.174 11.512C12.294 11.2803 12.4999 11.1046 12.7477 11.0226C12.9954 10.9406 13.2654 10.9587 13.5 11.073C18.78 13.647 25.749 13.071 29.434 11.028C30.1396 10.6416 30.7781 10.1439 31.325 9.554C32.841 7.902 32.477 6.283 32.031 5.347L30.268 6.707C30.0754 6.85543 29.8354 6.92876 29.5927 6.9133C29.35 6.89785 29.1212 6.79467 28.949 6.623C25.668 3.341 22.329 2.148 19.526 2.148Z" fill="black"/>
</svg>
