<svg width="41" height="58" viewBox="0 0 41 58" fill="none" xmlns="http://www.w3.org/2000/svg">
<path d="M11.2749 20.904H30.5459V14.847C31.6068 14.847 32.6242 14.4256 33.3743 13.6754C34.1245 12.9253 34.5459 11.9079 34.5459 10.847C34.5459 9.78613 34.1245 8.76872 33.3743 8.01857C32.6242 7.26843 31.6068 6.847 30.5459 6.847C29.6699 6.847 28.8669 7.137 28.2079 7.613C28.5483 7.02064 28.7296 6.3502 28.7339 5.667C28.7339 4.60613 28.3125 3.58872 27.5623 2.83857C26.8122 2.08843 25.7948 1.667 24.7339 1.667C22.9139 1.667 21.3939 2.891 20.9099 4.555C20.4259 2.891 18.9069 1.668 17.0869 1.668C16.026 1.668 15.0086 2.08943 14.2585 2.83957C13.5083 3.58972 13.0869 4.60713 13.0869 5.668C13.0869 6.378 13.2869 7.035 13.6119 7.613C12.9337 7.11661 12.1154 6.84839 11.2749 6.847C10.214 6.847 9.19662 7.26843 8.44648 8.01857C7.69633 8.76872 7.2749 9.78613 7.2749 10.847C7.2749 11.9079 7.69633 12.9253 8.44648 13.6754C9.19662 14.4256 10.214 14.847 11.2749 14.847" fill="white"/>
<path d="M39.8479 57.79C39.8479 57.79 41.8479 44.988 29.8479 44.988C26.6559 47.116 23.9219 48.587 20.8479 48.58H20.9729C17.8989 48.587 15.1649 47.116 11.9729 44.988C-0.0270996 44.988 1.9729 57.79 1.9729 57.79" fill="white"/>
<path d="M32.7679 7.081C31.7809 6.407 28.7089 7.459 28.7089 7.459C30.2069 3.701 26.7749 1.822 26.7749 1.822C26.7749 1.822 27.5749 5.551 25.2079 7.57C24.9539 7.787 24.7749 8.076 24.7749 8.41V20.713H25.4109L25.7239 20.749H31.0469V14.693C31.9548 14.6933 32.8358 14.3848 33.5451 13.8181C34.2544 13.2514 34.7499 12.4602 34.95 11.5746C35.1501 10.689 35.043 9.76172 34.6462 8.94508C34.2495 8.12845 33.5867 7.47107 32.7669 7.081L32.7499 7.478" fill="#D0CFCE"/>
<path d="M29.2539 45.14C26.0839 47.253 20.1779 51.412 11.9099 45.14C12.2949 50.675 21.5829 55.779 31.2219 51.034L31.6419 57.771H39.8219C39.8219 57.771 41.2539 45.139 29.2539 45.139V45.14Z" fill="#D0CFCE"/>
<path d="M30.425 20.867C31.0997 22.2737 31.5691 23.77 31.819 25.31L31.755 24.95C31.755 24.95 28.465 25.569 23.298 21.187" fill="#A57939"/>
<path d="M11.1919 20.867C10.5179 22.2738 10.0491 23.7701 9.79993 25.31L9.86393 24.95C9.86393 24.95 13.1539 25.569 18.3209 21.187" fill="#A57939"/>
<path d="M9.89203 24.829C9.678 25.9362 9.57084 27.0613 9.57203 28.189C9.57203 36.016 14.648 42.361 20.91 42.361C27.172 42.361 32.25 36.016 32.25 28.188C32.25 27.146 32.16 26.131 31.99 25.153C28.52 24.925 25.7 23.333 23.3 20.867H18.91C16.322 22.927 13.366 24.335 9.89103 24.829H9.89203Z" fill="#FADCBC"/>
<path d="M11.1999 20.867C10.1659 23.004 9.5719 25.509 9.5719 28.188C9.5719 36.016 14.6479 42.361 20.9099 42.361C27.1719 42.361 32.2499 36.016 32.2499 28.188C32.2499 25.509 31.6549 23.004 30.6219 20.868" stroke="black" stroke-width="2" stroke-miterlimit="10" stroke-linecap="round" stroke-linejoin="round"/>
<path d="M39.9099 57.827C39.6447 57.827 39.3903 57.7216 39.2028 57.5341C39.0153 57.3466 38.9099 57.0922 38.9099 56.827V53.827C38.9099 49.376 34.4139 46.017 30.2589 45.835C24.0539 50.847 17.7669 50.847 11.5619 45.835C7.40691 46.017 2.90991 49.375 2.90991 53.827V56.827C2.90991 57.0922 2.80456 57.3466 2.61702 57.5341C2.42948 57.7216 2.17513 57.827 1.90991 57.827C1.6447 57.827 1.39034 57.7216 1.2028 57.5341C1.01527 57.3466 0.909912 57.0922 0.909912 56.827V53.827C0.909912 48.503 6.04991 43.83 11.9099 43.827C12.1438 43.8271 12.3703 43.9092 12.5499 44.059C18.1749 48.747 23.6449 48.747 29.2699 44.059C29.4495 43.9092 29.676 43.8271 29.9099 43.827C35.7699 43.83 40.9099 48.503 40.9099 53.827V56.827C40.9099 57.0922 40.8046 57.3466 40.617 57.5341C40.4295 57.7216 40.1751 57.827 39.9099 57.827Z" fill="black"/>
<path d="M26.9099 26.827C26.9099 27.0897 26.8581 27.3498 26.7575 27.5925C26.6569 27.8352 26.5095 28.0557 26.3237 28.2414C26.1378 28.4271 25.9173 28.5744 25.6745 28.6749C25.4318 28.7754 25.1716 28.8271 24.9089 28.827C24.6462 28.8269 24.3861 28.7751 24.1434 28.6745C23.9007 28.5739 23.6802 28.4265 23.4945 28.2407C23.3088 28.0549 23.1615 27.8343 23.061 27.5916C22.9605 27.3489 22.9089 27.0887 22.9089 26.826C22.909 26.5632 22.9608 26.303 23.0614 26.0603C23.1621 25.8175 23.3095 25.597 23.4954 25.4112C23.6812 25.2255 23.9018 25.0781 24.1446 24.9776C24.3874 24.8771 24.6477 24.8254 24.9104 24.8255C25.1732 24.8256 25.4334 24.8774 25.6761 24.978C25.9189 25.0786 26.1394 25.2261 26.3252 25.4119C26.511 25.5978 26.6583 25.8184 26.7588 26.0612C26.8593 26.304 26.911 26.5642 26.9109 26.827" fill="black"/>
<path d="M18.9099 26.827C18.9099 27.0897 18.8581 27.3498 18.7575 27.5925C18.6569 27.8352 18.5095 28.0557 18.3237 28.2414C18.1378 28.4271 17.9173 28.5744 17.6745 28.6749C17.4318 28.7754 17.1716 28.8271 16.9089 28.827C16.6462 28.8269 16.3861 28.7751 16.1434 28.6745C15.9007 28.5739 15.6802 28.4265 15.4945 28.2407C15.3088 28.0549 15.1615 27.8343 15.061 27.5916C14.9605 27.3489 14.9089 27.0887 14.9089 26.826C14.9091 26.2953 15.12 25.7864 15.4954 25.4112C15.8707 25.0361 16.3797 24.8254 16.9104 24.8255C17.4411 24.8256 17.95 25.0366 18.3252 25.4119C18.7004 25.7873 18.9111 26.2963 18.9109 26.827" fill="black"/>
<path d="M20.9099 36.83C19.7589 36.83 18.6069 36.544 17.4629 35.972C17.3454 35.9132 17.2406 35.8319 17.1545 35.7326C17.0684 35.6333 17.0027 35.5181 16.9611 35.3934C16.9196 35.2688 16.903 35.1371 16.9123 35.0061C16.9216 34.875 16.9567 34.747 17.0154 34.6295C17.0742 34.512 17.1555 34.4072 17.2548 34.3211C17.3541 34.235 17.4693 34.1693 17.594 34.1277C17.7187 34.0862 17.8503 34.0696 17.9814 34.0789C18.1124 34.0882 18.2404 34.1232 18.3579 34.182C20.0749 35.042 21.7449 35.042 23.4629 34.182C23.7003 34.0633 23.9751 34.0438 24.2269 34.1277C24.4786 34.2116 24.6867 34.3921 24.8054 34.6295C24.9241 34.8669 24.9436 35.1417 24.8597 35.3934C24.7758 35.6452 24.5953 35.8533 24.3579 35.972C23.2139 36.544 22.0619 36.83 20.9099 36.83Z" fill="black"/>
<path d="M11.5619 45.835C11.5619 45.835 15.2269 56.693 31.7289 50.932V56.807" stroke="black" stroke-width="2" stroke-miterlimit="10" stroke-linecap="round" stroke-linejoin="round"/>
<path d="M13.4099 57.327C14.2383 57.327 14.9099 56.6554 14.9099 55.827C14.9099 54.9986 14.2383 54.327 13.4099 54.327C12.5815 54.327 11.9099 54.9986 11.9099 55.827C11.9099 56.6554 12.5815 57.327 13.4099 57.327Z" fill="black"/>
<path d="M28.4099 57.327C29.2383 57.327 29.9099 56.6554 29.9099 55.827C29.9099 54.9986 29.2383 54.327 28.4099 54.327C27.5815 54.327 26.9099 54.9986 26.9099 55.827C26.9099 56.6554 27.5815 57.327 28.4099 57.327Z" fill="black"/>
<path d="M11.1919 20.867C10.5179 22.2738 10.0491 23.7701 9.79993 25.31L9.86393 24.95C9.86393 24.95 13.1539 25.569 18.3209 21.187" stroke="black" stroke-width="2" stroke-miterlimit="10" stroke-linecap="round" stroke-linejoin="round"/>
<path d="M30.4249 20.867C31.0996 22.2737 31.569 23.77 31.8189 25.31L31.7549 24.95C31.7549 24.95 28.4649 25.569 23.2979 21.187" stroke="black" stroke-width="2" stroke-miterlimit="10" stroke-linecap="round" stroke-linejoin="round"/>
<path d="M11.2749 14.847V20.904" stroke="black" stroke-width="2" stroke-miterlimit="10" stroke-linecap="round" stroke-linejoin="round"/>
<path d="M11.2749 20.904H30.5459V14.847C31.6068 14.847 32.6242 14.4256 33.3743 13.6754C34.1245 12.9253 34.5459 11.9079 34.5459 10.847C34.5459 9.78613 34.1245 8.76872 33.3743 8.01857C32.6242 7.26843 31.6068 6.847 30.5459 6.847C29.6699 6.847 28.8669 7.137 28.2079 7.613C28.5483 7.02064 28.7296 6.3502 28.7339 5.667C28.7339 4.60613 28.3125 3.58872 27.5623 2.83857C26.8122 2.08843 25.7948 1.667 24.7339 1.667C22.9139 1.667 21.3939 2.891 20.9099 4.555C20.4259 2.891 18.9069 1.668 17.0869 1.668C16.026 1.668 15.0086 2.08943 14.2585 2.83957C13.5083 3.58972 13.0869 4.60713 13.0869 5.668C13.0869 6.378 13.2869 7.035 13.6119 7.613C12.9337 7.11661 12.1154 6.84839 11.2749 6.847C10.214 6.847 9.19662 7.26843 8.44648 8.01857C7.69633 8.76872 7.2749 9.78613 7.2749 10.847C7.2749 11.9079 7.69633 12.9253 8.44648 13.6754C9.19662 14.4256 10.214 14.847 11.2749 14.847" stroke="black" stroke-width="2" stroke-miterlimit="10" stroke-linecap="round" stroke-linejoin="round"/>
</svg>
