<svg width="65" height="35" viewBox="0 0 65 35" fill="none" xmlns="http://www.w3.org/2000/svg">
<path d="M8.031 34C11.9141 34 15.062 30.866 15.062 27C15.062 23.134 11.9141 20 8.031 20C4.14789 20 1 23.134 1 27C1 30.866 4.14789 34 8.031 34Z" fill="#9B9B9A"/>
<path d="M49.031 34.995C53.4664 34.995 57.062 31.4155 57.062 27C57.062 22.5845 53.4664 19.005 49.031 19.005C44.5956 19.005 41 22.5845 41 27C41 31.4155 44.5956 34.995 49.031 34.995Z" fill="#9B9B9A"/>
<path d="M8.11499 14.12C6.91999 13.44 6.11499 13 6.11499 13C6.11499 13 9.89899 6.608 15.115 4C19.115 2 26.115 1 26.115 1V4L20.115 8L24.115 11L32.115 9L39.115 15C39.115 15 46.115 12 49.115 9V7L63.115 4L62.115 7C62.115 7 40.115 23 34.115 23L39.115 29H19.115C19.115 29 19.115 23 18.115 21C17.579 19.928 14.165 17.831 11.115 16" fill="#EA5A47"/>
<path d="M61.115 9L63.115 11L61.417 12.668L58.875 10.126" fill="#FCEA2B"/>
<path d="M11 17L8 15C8 15 12 10 13 10C14 10 11 17 11 17Z" fill="#FCEA2B"/>
<path d="M24.115 11C24.115 15.834 29 18.667 32.667 18.667C35.731 18.667 42.781 13.811 45.167 13.333C46.882 12.99 46.694 11.44 49.25 10.625C50.835 10.119 59.5 6.125 62 6.375C63.634 6.539 59.528 8.626 60.667 8C67.334 4.334 35.667 22.667 35.667 22.667L33 23L25.167 19.334L19.5 13.834V8.334L24.115 11Z" fill="#D22F27"/>
<path d="M35.5 11.5L38 15L46.5 12L49.115 9V7L35.5 11.5Z" fill="#3F3F3F"/>
<path d="M36.15 24.388L41.75 24.968L44.594 24L48.719 21.875L55.625 18.781L55.844 17.469L52 13.949L43.969 19.313L36.275 22.315L34.87 23L35.5 24L36.15 24.388Z" fill="#D0CFCE"/>
<path d="M11.115 16C11.115 16 14.115 12 13.115 11" stroke="black" stroke-width="2" stroke-miterlimit="10" stroke-linecap="round" stroke-linejoin="round"/>
<path d="M8.031 34C11.9141 34 15.062 30.866 15.062 27C15.062 23.134 11.9141 20 8.031 20C4.14789 20 1 23.134 1 27C1 30.866 4.14789 34 8.031 34Z" stroke="black" stroke-width="2" stroke-miterlimit="10"/>
<path d="M11.115 16C14.165 17.831 17.579 19.928 18.115 21C19.115 23 19.115 30 19.115 30H39.115C39.115 30 38.629 23.963 26.834 20C24.858 19.337 15.339 12.776 20.115 8" stroke="black" stroke-width="2" stroke-miterlimit="10" stroke-linecap="round" stroke-linejoin="round"/>
<path d="M8.11499 14.12C6.91999 13.44 6.11499 13 6.11499 13C6.11499 13 9.89899 6.608 15.115 4C19.115 2 26.115 1 26.115 1V4L20.115 8L24.115 11C24.115 11 30.83 7.372 34.115 10C35.99 11.5 38.115 15 38.115 15C38.115 15 46.115 13 49.115 10V7L63.115 4L62.115 7C62.115 7 39.625 23.167 33.625 23.167" stroke="black" stroke-width="2" stroke-miterlimit="10" stroke-linecap="round" stroke-linejoin="round"/>
<path d="M11.115 16C11.115 16 14.115 12 13.115 11" stroke="black" stroke-width="2" stroke-miterlimit="10" stroke-linecap="round" stroke-linejoin="round"/>
<path d="M14.115 19L8.03101 27" stroke="black" stroke-width="2" stroke-miterlimit="10" stroke-linecap="round" stroke-linejoin="round"/>
<path d="M61.115 9L63.115 11L62.115 12" stroke="black" stroke-width="2" stroke-miterlimit="10" stroke-linecap="round" stroke-linejoin="round"/>
<path d="M55 18L44.115 24H42" stroke="black" stroke-width="2" stroke-miterlimit="10" stroke-linecap="round" stroke-linejoin="round"/>
<path d="M49.115 7C43.835 9.85 38.833 11 35.115 11" stroke="black" stroke-width="2" stroke-miterlimit="10" stroke-linecap="round" stroke-linejoin="round"/>
<path d="M42.267 28.916C42.6898 30.3826 43.5783 31.6718 44.7983 32.5889C46.0184 33.5061 47.5037 34.0013 49.03 34C52.913 34 56.062 30.866 56.062 27C56.062 25.34 55.482 23.815 54.511 22.615" stroke="black" stroke-width="2" stroke-miterlimit="10" stroke-linecap="round"/>
</svg>
