<svg width="96" height="19" viewBox="0 0 96 19" fill="none" xmlns="http://www.w3.org/2000/svg">
<path fill-rule="evenodd" clip-rule="evenodd" d="M3.3389 1.728H0.645996V14.4023H8.9117V12.0144H3.3389V1.728ZM16.7286 12.1981H13.9983C13.5988 12.1981 13.3999 12.0027 13.3999 11.6103V4.7037H10.8192V11.4266C10.8192 13.4104 11.829 14.4023 13.8487 14.4023H19.3093V4.7037H16.7286V12.1981ZM27.949 4.7037H25.0691C23.0494 4.7037 22.0396 5.6956 22.0396 7.6794V11.4266C22.0396 13.4104 23.0494 14.4023 25.0691 14.4023H30.5297V0.80957H27.949V4.7037ZM27.949 12.1981H25.2187C24.8192 12.1981 24.6203 12.0027 24.6203 11.6103V7.49572C24.6203 7.10413 24.8192 6.90792 25.2187 6.90792H27.949V12.1981ZM38.9076 4.7037H36.2895C34.2698 4.7037 33.26 5.6956 33.26 7.6794V11.4266C33.26 13.4104 34.2698 14.4023 36.2895 14.4023H38.9076C40.9273 14.4023 41.9371 13.4104 41.9371 11.4266V7.6794C41.9371 5.6956 40.9273 4.7037 38.9076 4.7037ZM39.3564 11.6103C39.3564 12.0027 39.1567 12.1981 38.758 12.1981H36.4391C36.0396 12.1981 35.8407 12.0027 35.8407 11.6103V7.49572C35.8407 7.10413 36.0396 6.90792 36.4391 6.90792H38.758C39.1567 6.90792 39.3564 7.10413 39.3564 7.49572V11.6103ZM47.5465 1.728H44.8536V14.4023H53.1193V12.0144H47.5465V1.728ZM60.5995 4.7037H57.9814C55.9618 4.7037 54.9519 5.6956 54.9519 7.6794V11.4266C54.9519 13.4104 55.9618 14.4023 57.9814 14.4023H60.5995C62.6192 14.4023 63.6291 13.4104 63.6291 11.4266V7.6794C63.6291 5.6956 62.6192 4.7037 60.5995 4.7037ZM61.0484 11.6103C61.0484 12.0027 60.8486 12.1981 60.4499 12.1981H58.1311C57.7315 12.1981 57.5326 12.0027 57.5326 11.6103V7.49572C57.5326 7.10413 57.7315 6.90792 58.1311 6.90792H60.4499C60.8486 6.90792 61.0484 7.10413 61.0484 7.49572V11.6103ZM71.8574 4.7037H69.2393C67.2196 4.7037 66.2097 5.6956 66.2097 7.6794V11.4266C66.2097 13.4104 67.2196 14.4023 69.2393 14.4023H71.8574C73.877 14.4023 74.8869 13.4104 74.8869 11.4266V7.6794C74.8869 5.6956 73.877 4.7037 71.8574 4.7037ZM72.3062 11.6103C72.3062 12.0027 72.1064 12.1981 71.7077 12.1981H69.3889C68.9893 12.1981 68.7904 12.0027 68.7904 11.6103V7.49572C68.7904 7.10413 68.9893 6.90792 69.3889 6.90792H71.7077C72.1064 6.90792 72.3062 7.10413 72.3062 7.49572V11.6103ZM83.0778 4.7037H77.6172V18.076H80.1979V14.4023H83.0778C85.0974 14.4023 86.1073 13.4104 86.1073 11.4266V7.6794C86.1073 5.6956 85.0974 4.7037 83.0778 4.7037ZM83.5266 11.6103C83.5266 12.0027 83.3268 12.1981 82.9282 12.1981H80.1979V6.90792H82.9282C83.3268 6.90792 83.5266 7.10413 83.5266 7.49572V11.6103ZM93.625 8.76315L91.624 8.43251C91.2372 8.37156 91.0443 8.09603 91.0443 7.60593C91.0443 7.14087 91.2559 6.90792 91.6801 6.90792H95.5511V5.53028L94.4291 4.7037H91.5305C89.5108 4.7037 88.501 5.68391 88.501 7.64267C88.501 9.18562 89.2983 10.0924 90.8947 10.3612L92.9143 10.6918C93.2628 10.7536 93.4379 11.0225 93.4379 11.5001C93.4379 11.966 93.2254 12.1981 92.8021 12.1981H88.501V13.5757L89.623 14.4023H92.9517C94.9833 14.4023 95.9999 13.4171 95.9999 11.445C95.9999 9.91452 95.2077 9.02031 93.625 8.76315Z" fill="white"/>
</svg>
