<svg width="1920" height="692" viewBox="0 0 1920 692" fill="none" xmlns="http://www.w3.org/2000/svg">
<rect width="1920" height="692" fill="url(#paint0_linear)"/>
<mask id="mask0" style="mask-type:alpha" maskUnits="userSpaceOnUse" x="0" y="0" width="1920" height="692">
<rect width="1920" height="692" fill="url(#paint1_linear)"/>
</mask>
<g mask="url(#mask0)">
<path d="M293 309.775C292.759 310.237 292.612 310.549 292.442 310.844C285.651 322.445 278.873 334.059 272.051 345.647C269.593 349.82 265.836 351.979 260.941 351.984C232.889 352.01 204.832 351.997 176.779 351.997C176.494 351.997 176.213 351.997 175.851 351.997C145.037 299.406 114.227 246.811 83.3283 194.075C83.8593 194.048 84.2029 194.018 84.542 194.018C100.284 194.013 116.021 194.022 131.763 194C132.49 194 132.905 194.211 133.28 194.849C148.455 220.803 163.648 246.745 178.841 272.691C185.918 284.78 193.003 296.868 200.053 308.975C200.468 309.687 200.954 309.793 201.686 309.793C231.523 309.78 261.365 309.78 291.202 309.78C291.733 309.775 292.268 309.775 293 309.775ZM18.7014 230.79C10.4021 244.964 2.20553 258.961 -6 272.968C-5.82152 273.293 -5.67874 273.57 -5.52257 273.843C8.45673 297.717 22.4316 321.587 36.4153 345.458C38.9765 349.829 42.8361 351.992 47.9584 351.992C67.6222 351.992 87.2861 351.992 106.95 351.992C107.338 351.992 107.726 351.992 108.137 351.992C116.262 338.122 124.356 324.305 132.446 310.483C132.535 310.334 132.602 310.167 132.673 310.009C132.682 309.982 132.664 309.943 132.651 309.912C132.637 309.881 132.62 309.85 132.579 309.771C110.087 309.771 87.5716 309.771 64.9451 309.771C49.5335 283.447 34.1576 257.185 18.7014 230.79Z" fill="#0C265B" fill-opacity="0.4"/>
<path d="M501 555.534C500.649 556.206 500.435 556.661 500.189 557.089C490.309 573.977 480.448 590.883 470.523 607.751C466.946 613.826 461.48 616.97 454.359 616.976C413.547 617.014 372.729 616.995 331.917 616.995C331.501 616.995 331.092 616.995 330.566 616.995C285.736 540.439 240.913 463.876 195.959 387.109C196.732 387.07 197.232 387.026 197.725 387.026C220.627 387.019 243.522 387.032 266.424 387C267.482 387 268.086 387.307 268.631 388.236C290.709 426.018 312.812 463.78 334.916 501.549C345.211 519.147 355.52 536.745 365.776 554.369C366.38 555.406 367.087 555.559 368.152 555.559C411.56 555.54 454.975 555.54 498.384 555.54C499.156 555.534 499.935 555.534 501 555.534ZM101.937 440.555C89.8626 461.188 77.9378 481.564 66 501.953C66.2597 502.427 66.4674 502.83 66.6946 503.227C87.0324 537.981 107.364 572.728 127.708 607.476C131.434 613.839 137.049 616.989 144.501 616.989C173.109 616.989 201.717 616.989 230.325 616.989C230.89 616.989 231.455 616.989 232.052 616.989C243.873 596.798 255.648 576.685 267.417 556.564C267.547 556.347 267.645 556.104 267.748 555.873C267.761 555.835 267.735 555.777 267.716 555.732C267.697 555.688 267.671 555.643 267.612 555.527C234.889 555.527 202.133 555.527 169.214 555.527C146.793 517.208 124.423 478.978 101.937 440.555Z" fill="#0C265B" fill-opacity="0.53"/>
</g>
<defs>
<linearGradient id="paint0_linear" x1="960" y1="0" x2="960" y2="692" gradientUnits="userSpaceOnUse">
<stop stop-color="#03035F"/>
<stop offset="1" stop-color="#02023B"/>
</linearGradient>
<linearGradient id="paint1_linear" x1="960" y1="0" x2="960" y2="692" gradientUnits="userSpaceOnUse">
<stop stop-color="#03035F"/>
<stop offset="1" stop-color="#02023B"/>
</linearGradient>
</defs>
</svg>
